<svg xmlns="http://www.w3.org/2000/svg" width="66" height="63" viewBox="0 0 66 63">
  <metadata><?xpacket begin="﻿" id="W5M0MpCehiHzreSzNTczkc9d"?>
<x:xmpmeta xmlns:x="adobe:ns:meta/" x:xmptk="Adobe XMP Core 5.6-c142 79.160924, 2017/07/13-01:06:39        ">
   <rdf:RDF xmlns:rdf="http://www.w3.org/1999/02/22-rdf-syntax-ns#">
      <rdf:Description rdf:about=""/>
   </rdf:RDF>
</x:xmpmeta>
                                                                                                    
                                                                                                    
                                                                                                    
                                                                                                    
                                                                                                    
                                                                                                    
                                                                                                    
                                                                                                    
                                                                                                    
                                                                                                    
                                                                                                    
                                                                                                    
                                                                                                    
                                                                                                    
                                                                                                    
                                                                                                    
                                                                                                    
                                                                                                    
                                                                                                    
                                                                                                    
                           
<?xpacket end="w"?></metadata>
<defs>
    <style>
      .cls-1 {
        fill: #f8fff9;
        fill-rule: evenodd;
      }
    </style>
  </defs>
  <path id="Rounded_Rectangle_3_copy" data-name="Rounded Rectangle 3 copy" class="cls-1" d="M2.724,29.091l31.4,31.193a1.582,1.582,0,0,1,0,2.248,1.608,1.608,0,0,1-2.263,0L0.461,31.339a1.582,1.582,0,0,1,0-2.248A1.608,1.608,0,0,1,2.724,29.091Zm62.8,0a1.582,1.582,0,0,1,0,2.248l-31.4,31.192a1.608,1.608,0,0,1-2.263,0,1.582,1.582,0,0,1,0-2.248l31.4-31.192A1.608,1.608,0,0,1,65.527,29.091Z"/>
  <path id="Rounded_Rectangle_3_copy_2" data-name="Rounded Rectangle 3 copy 2" class="cls-1" d="M2.724,0.454l31.4,31.192a1.582,1.582,0,0,1,0,2.248,1.607,1.607,0,0,1-2.263,0L0.461,2.7a1.582,1.582,0,0,1,0-2.248A1.608,1.608,0,0,1,2.724.454Zm62.8,0a1.582,1.582,0,0,1,0,2.248l-31.4,31.192a1.607,1.607,0,0,1-2.263,0,1.582,1.582,0,0,1,0-2.248l31.4-31.192A1.608,1.608,0,0,1,65.527.454Z"/>
</svg>
